# xmcd
# 
# Track frame offsets:
#     150
#     16099
#     34632
#     50921
#     68344
#     82143
#     101478
#     116455
#     136130
#     150781
#     167711
#     183011
#     200513
#     217200
# 
# Disc length: 3125
# 
# Revision: 5
# Processed by: cddbd v1.5.2PL0 Copyright (c) Steve Scherf et al.
# Submitted via: fre:ac v1.0.17
# 
DISCID=b00c330e
DTITLE=Blake Shelton - Pure BS
DYEAR=2008
DGENRE=Country
TTITLE0=This Can't Be Good
TTITLE1=Don't Make Me
TTITLE2=The More I Drink
TTITLE3=I Don't Care
TTITLE4=She Don't Love Me
TTITLE5=Back There Again
TTITLE6=It Ain't Easy Bein' Me
TTITLE7=What I Wouldn't Give
TTITLE8=I Have Been Lonely
TTITLE9=She Can't Get That
TTITLE10=The Last Country Song
TTITLE11=Chances
TTITLE12=I Can't Walk Away
TTITLE13=Home
EXTD=
EXTT0=
EXTT1=
EXTT2=
EXTT3=
EXTT4=
EXTT5=
EXTT6=
EXTT7=
EXTT8=
EXTT9=
EXTT10=
EXTT11=
EXTT12=
EXTT13=
PLAYORDER=
